<svg width="512" height="512" viewBox="0 0 512 512" fill="none" xmlns="http://www.w3.org/2000/svg">
<path d="M143.962 203.068C153.818 203.068 161.807 189.618 161.807 173.026C161.807 156.434 153.818 142.984 143.962 142.984C134.107 142.984 126.118 156.434 126.118 173.026C126.118 189.618 134.107 203.068 143.962 203.068Z" fill="#E8C59E"/>
<path d="M364.8 203.068C374.655 203.068 382.645 189.618 382.645 173.026C382.645 156.434 374.655 142.984 364.8 142.984C354.945 142.984 346.955 156.434 346.955 173.026C346.955 189.618 354.945 203.068 364.8 203.068Z" fill="#E8C59E"/>
<path d="M320.226 322.259C349.429 324.096 378.341 329.147 406.438 337.318C449.958 350.871 479.172 387.991 479.172 429.553V496.941H32.8281V429.854C32.8281 388.292 62.0422 351.172 105.562 337.619C133.659 329.448 162.571 324.398 191.774 322.56" fill="#3F5D50"/>
<path d="M211.2 273.995L256.151 292.217L301.101 273.995L309.158 303.511L256.151 340.254L203.144 303.511L211.2 273.995Z" fill="#DBB997"/>
<path d="M368.188 154.052C368.188 204.875 343.492 261.798 307.05 291.614C292.47 304.521 273.809 311.879 254.344 312.395C235.108 311.862 216.659 304.647 202.165 291.991C165.647 262.4 140.574 205.176 140.574 154.052C140.574 150.187 140.725 146.422 141.026 142.758C158.482 124.912 179.953 111.501 203.648 103.642C227.342 95.783 252.572 93.705 277.233 97.5812C316.537 102.776 340.48 100.518 355.087 96.0753C364.003 114.084 368.494 133.959 368.188 154.052Z" fill="#E8C59E"/>
<path d="M203.143 303.511L206.005 305.468L256.151 340.254L214.965 381.289L189.44 323.162L203.143 303.511ZM309.158 303.511L306.296 305.468L256.151 340.254L297.336 381.289L322.861 323.162L309.158 303.511Z" fill="#E6E6E6"/>
<path d="M361.412 176.264H351.473C355.45 160.46 353.241 143.735 345.299 129.506C345.299 129.506 328.207 152.696 308.706 151.04C297.788 150.136 282.052 140.649 270.005 132.292C251.727 119.078 228.951 113.661 206.682 117.233C182.212 121.675 155.256 137.186 145.543 181.76H135.529C135.529 181.76 112.414 21.3082 246.061 20.48C246.061 20.48 309.233 33.8824 323.539 20.48C337.845 7.07765 363.445 19.6518 372.781 46.08C389.798 104.659 361.412 176.264 361.412 176.264Z" fill="#2F3233"/>
</svg>
