<svg width="255" height="57" viewBox="0 0 255 57" fill="none" xmlns="http://www.w3.org/2000/svg">
<g clip-path="url(#clip0_150_7450)">
<path d="M45.106 5.98585C45.1058 5.98607 45.1058 5.98644 45.1061 5.98663C45.6393 6.39968 45.9576 7.03936 45.9576 7.72312V19.1584C45.9576 19.7125 46.2516 20.2249 46.73 20.5045C47.7693 21.1119 49.0757 20.3622 49.0757 19.1584V9.54679C49.0757 8.76132 48.6577 8.03675 47.978 7.64402L45.1067 5.98576C45.1065 5.98565 45.1062 5.98568 45.106 5.98585Z" fill="#101828"/>
<path d="M39.8824 2.94934C39.8822 2.94934 39.8821 2.94961 39.8823 2.94973C40.4154 3.36278 40.7345 4.00245 40.7345 4.6862V41.9573C40.7345 42.5112 41.0283 43.0235 41.5064 43.3031C42.5457 43.911 43.8525 43.1614 43.8525 41.9573V6.50987C43.8525 5.7251 43.4339 4.99983 42.7548 4.60779L39.8825 2.94937C39.8825 2.94935 39.8825 2.94934 39.8824 2.94934Z" fill="#101828"/>
<path d="M34.6588 0C35.1923 0.413038 35.5108 1.0515 35.5108 1.73686V32.6925C35.5108 33.2583 35.8173 33.7796 36.3117 34.0548C37.3508 34.6331 38.6289 33.8818 38.6289 32.6925V3.56053C38.6289 2.77575 38.211 2.05049 37.5312 1.65845L34.6588 0Z" fill="#101828"/>
<path d="M0.0214663 25.096C0.112474 24.4274 0.508015 23.8323 1.10097 23.4907L10.6568 18.47C11.1779 18.1962 11.5057 17.6575 11.5092 17.0688C11.5164 15.866 10.2393 15.089 9.17446 15.6485L1.12407 19.8777C0.443606 20.2697 0.0249701 20.9943 0.0242701 21.7791L0.0214663 25.0953V25.096Z" fill="#101828"/>
<path d="M-0.000148773 31.1382C0.0908623 30.4697 0.485699 29.8739 1.07865 29.5323L33.3687 10.9169C33.8485 10.6403 34.1455 10.1298 34.1489 9.57602C34.1564 8.37217 32.8545 7.61455 31.8115 8.21582L1.10106 25.92C0.421295 26.312 0.00195312 27.0373 0.00195312 27.8213L-0.000148773 31.1382Z" fill="#101828"/>
<path d="M0.0536499 37.1357C0.0537071 37.1357 0.0537415 37.1356 0.0537529 37.1355C0.144791 36.467 0.539612 35.872 1.13323 35.5304L33.4397 16.9057C33.9298 16.6232 34.2283 16.0973 34.2198 15.5317C34.2018 14.3427 32.9128 13.6109 31.8826 14.2048L1.15493 31.9187C0.47517 32.3108 0.0558395 33.0353 0.0558395 33.8201L0.0530357 37.1355C0.0530357 37.1358 0.0534248 37.1359 0.0536499 37.1357Z" fill="#101828"/>
<path d="M38.5479 54.4633C38.5479 54.4633 38.5479 54.4634 38.5479 54.4634C37.9241 54.7196 37.2108 54.6755 36.6178 54.3338L26.9836 48.8568C26.5065 48.5856 25.9217 48.5862 25.4452 48.8585C24.4001 49.4556 24.4017 50.9631 25.4481 51.5579L33.4808 56.1246C34.1613 56.5166 34.9979 56.5166 35.6776 56.1232L38.548 54.4637C38.5482 54.4636 38.5481 54.4633 38.5479 54.4633Z" fill="#101828"/>
<path d="M44.389 51.6318C44.3891 51.6318 44.3892 51.632 44.389 51.632C43.7654 51.888 43.0516 51.8445 42.4589 51.503L10.1675 32.891C9.68769 32.6144 9.09713 32.6132 8.61613 32.8877C7.57049 33.4846 7.56736 34.9911 8.61051 35.5924L39.3219 53.2937C40.0016 53.6858 40.8396 53.6851 41.518 53.2923L44.3889 51.6318C44.3889 51.6318 44.389 51.6318 44.389 51.6318Z" fill="#101828"/>
<path d="M49.5532 48.5795C48.9295 48.8357 48.2168 48.7923 47.6231 48.4499L15.3147 29.8281C14.8246 29.5456 14.2198 29.5508 13.7346 29.8417C12.7148 30.4532 12.7276 31.9355 13.7578 32.5293L44.4862 50.2407C45.1659 50.6327 46.0032 50.6327 46.6823 50.2393L49.5532 48.5795Z" fill="#101828"/>
<ellipse cx="34.7079" cy="32.4455" rx="3.9369" ry="3.9369" fill="#101828"/>
</g>
<path fill-rule="evenodd" clip-rule="evenodd" d="M78.1843 26.1686C80.3316 27.6001 81.7631 30.0338 81.7631 32.8253C81.7631 37.2273 78.1843 40.8062 73.7822 40.8062H61.0056V15.754H72.4938C76.2159 15.754 79.2579 18.7961 79.2579 22.5181C79.2579 23.8781 78.8642 25.1307 78.1843 26.1686ZM65.4792 20.2276V24.8086H72.5296C73.7822 24.8086 74.8201 23.7707 74.8201 22.5181C74.8201 21.2655 73.7822 20.2276 72.5296 20.2276H65.4792ZM73.7822 36.3326V36.2968C75.7148 36.2968 77.2895 34.7221 77.2895 32.7895C77.2895 30.8569 75.7148 29.2822 73.7822 29.2822H65.4792V36.3326H73.7822ZM105.577 36.3326L107.867 40.8062H102.857L101.024 37.2273H91.7839L94.2616 32.9327H98.8323L95.0906 25.5959L89.6149 36.3326L87.3244 40.8062H82.314L84.6044 36.3326L95.0906 15.754L105.577 36.3326ZM110.282 28.2801C110.282 23.8423 113.897 20.2276 118.335 20.2276H125.135V15.754H118.335C111.428 15.754 105.809 21.3728 105.809 28.2801C105.809 35.1873 111.428 40.8062 118.335 40.8062H125.135V36.3326H118.335C113.897 36.3326 110.282 32.7179 110.282 28.2801ZM153.767 15.754L142.816 25.8107L139.487 28.8527L133.153 34.6147V40.8062H128.679V15.754H133.153V28.5664L136.839 25.2023L140.167 22.1602L147.146 15.754H153.767ZM167.682 15.7898L156.623 15.754V40.8062H167.718C171.154 40.8062 174.267 39.4104 176.522 37.1199L176.522 37.1198C176.773 36.8693 177.023 36.6189 177.238 36.3684C179.099 34.1853 180.208 31.3579 180.208 28.2801C180.208 21.3728 174.589 15.7898 167.682 15.7898ZM161.061 36.3684V20.2634H167.682C172.12 20.2634 175.735 23.8781 175.735 28.3159C175.735 32.7537 172.12 36.3684 167.682 36.3684H161.061ZM194.731 15.754C201.639 15.754 207.258 21.3728 207.258 28.2801C207.258 35.1873 201.639 40.8062 194.731 40.8062C187.824 40.8062 182.205 35.1873 182.205 28.2801C182.205 21.3728 187.824 15.754 194.731 15.754ZM194.731 36.3326C199.169 36.3326 202.784 32.7179 202.784 28.2801C202.784 23.8423 199.169 20.2276 194.731 20.2276C190.294 20.2276 186.679 23.8423 186.679 28.2801C186.679 32.7179 190.294 36.3326 194.731 36.3326ZM233.383 28.2801C233.383 21.3728 227.765 15.754 220.857 15.754C213.95 15.754 208.331 21.3728 208.331 28.2801C208.331 35.1873 213.95 40.8062 220.857 40.8062C227.765 40.8062 233.383 35.1873 233.383 28.2801ZM228.91 28.2801C228.91 32.7179 225.295 36.3326 220.857 36.3326C216.419 36.3326 212.805 32.7179 212.805 28.2801C212.805 23.8423 216.419 20.2276 220.857 20.2276C225.295 20.2276 228.91 23.8423 228.91 28.2801ZM249.13 29.2464L252.709 36.3684L255 40.842H249.989L244.96 29.2464H239.79V40.842H235.316V15.7898H248.272C250.133 15.7898 251.815 16.5414 253.031 17.7582C254.248 19.0108 255 20.6929 255 22.5539C255 25.2738 253.389 27.6359 251.063 28.7096C250.455 28.9959 249.81 29.1748 249.13 29.2464ZM239.79 24.8802L248.272 24.8444C248.594 24.8444 248.916 24.7728 249.202 24.6296C250.025 24.2717 250.562 23.4486 250.562 22.5539C250.562 21.7307 250.133 21.1581 249.882 20.9076C249.596 20.6213 249.059 20.2634 248.272 20.2634H239.79V24.8802ZM144.501 29.3537L152.482 40.7703H146.97L141.173 32.3957L144.501 29.3537Z" fill="#101828"/>
<defs>
<clipPath id="clip0_150_7450">
<rect width="49.5533" height="56.596" fill="white" transform="matrix(-1 0 0 1 49.5532 0)"/>
</clipPath>
</defs>
</svg>
