<svg width="34" height="38" viewBox="0 0 34 38" fill="none" xmlns="http://www.w3.org/2000/svg">
<g clip-path="url(#clip0_41_8390)">
<path d="M30.0707 4.12525C30.0705 4.1254 30.0705 4.12564 30.0707 4.12577C30.4262 4.40114 30.6384 4.82759 30.6384 5.28343V12.907C30.6384 13.2763 30.8344 13.6179 31.1533 13.8043C31.8462 14.2093 32.7171 13.7095 32.7171 12.907V6.49921C32.7171 5.97556 32.4385 5.49252 31.9853 5.2307L30.0711 4.12519C30.071 4.12512 30.0708 4.12514 30.0707 4.12525Z" fill="#95DE64"/>
<path d="M26.5882 2.10089C26.5881 2.10089 26.588 2.10107 26.5881 2.10115C26.9436 2.37652 27.1563 2.80297 27.1563 3.2588V28.1062C27.1563 28.4755 27.3522 28.817 27.6709 29.0034C28.3638 29.4086 29.235 28.9089 29.235 28.1062V4.47458C29.235 3.95139 28.9559 3.46788 28.5032 3.20653L26.5883 2.10091C26.5883 2.1009 26.5883 2.10089 26.5882 2.10089Z" fill="#95DE64"/>
<path d="M23.1058 0.134674C23.4614 0.410033 23.6738 0.835672 23.6738 1.29258V21.9297C23.6738 22.3068 23.8781 22.6544 24.2077 22.8378C24.9005 23.2234 25.7525 22.7225 25.7525 21.9297V2.50836C25.7525 1.98518 25.4739 1.50167 25.0207 1.24031L23.1058 0.134674Z" fill="#95DE64"/>
<path d="M0.0142927 16.8653C0.074965 16.4196 0.338658 16.0229 0.733961 15.7952L7.10453 12.448C7.45192 12.2655 7.67042 11.9063 7.67277 11.5139C7.67759 10.712 6.82621 10.194 6.11628 10.567L0.749361 13.3865C0.29572 13.6478 0.0166287 14.1309 0.0161619 14.6541L0.0142927 16.8649V16.8653Z" fill="#95DE64"/>
<path d="M-0.000110626 20.8935C0.0605621 20.4478 0.323788 20.0506 0.71909 19.8229L22.2457 7.4126C22.5656 7.22819 22.7636 6.88791 22.7659 6.5187C22.7709 5.71613 21.903 5.21105 21.2076 5.6119L0.734026 17.4147C0.280851 17.676 0.00129128 18.1595 0.00129128 18.6822L-0.000110626 20.8935Z" fill="#95DE64"/>
<path d="M0.0356731 24.8918C0.0357113 24.8918 0.0357342 24.8917 0.0357418 24.8917C0.0964355 24.446 0.359648 24.0493 0.755394 23.8216L22.293 11.4051C22.6198 11.2168 22.8188 10.8662 22.8131 10.4891C22.8011 9.69648 21.9418 9.20857 21.255 9.60449L0.769861 21.4138C0.316687 21.6752 0.0371323 22.1582 0.0371323 22.6814L0.035265 24.8916C0.0352631 24.8918 0.0355225 24.8919 0.0356731 24.8918Z" fill="#95DE64"/>
<path d="M25.6985 36.4436C25.6985 36.4436 25.6984 36.4436 25.6984 36.4436C25.2826 36.6144 24.807 36.585 24.4117 36.3572L17.989 32.7059C17.6709 32.5251 17.281 32.5255 16.9633 32.707C16.2666 33.1051 16.2677 34.11 16.9652 34.5066L22.3204 37.5511C22.774 37.8124 23.3318 37.8124 23.7849 37.5501L25.6985 36.4438C25.6986 36.4437 25.6986 36.4436 25.6985 36.4436Z" fill="#95DE64"/>
<path d="M29.5925 34.5559C29.5926 34.5559 29.5926 34.556 29.5925 34.556C29.1768 34.7267 28.7009 34.6977 28.3058 34.47L6.77823 22.062C6.45833 21.8776 6.06462 21.8768 5.74395 22.0598C5.04686 22.4578 5.04478 23.4621 5.74021 23.8629L26.2145 35.6638C26.6676 35.9252 27.2263 35.9247 27.6785 35.6629L29.5925 34.5559C29.5925 34.5559 29.5925 34.5559 29.5925 34.5559Z" fill="#95DE64"/>
<path d="M33.0355 32.521C32.6196 32.6918 32.1445 32.6629 31.7487 32.4346L10.2098 20.0201C9.88302 19.8317 9.47985 19.8352 9.15637 20.0292C8.4765 20.4368 8.48503 21.425 9.17184 21.8209L29.6574 33.6285C30.1106 33.8898 30.6688 33.8898 31.1215 33.6275L33.0355 32.521Z" fill="#95DE64"/>
<ellipse cx="23.1386" cy="21.765" rx="2.6246" ry="2.6246" fill="#95DE64"/>
</g>
<defs>
<clipPath id="clip0_41_8390">
<rect width="33.0355" height="37.7307" fill="white" transform="matrix(-1 0 0 1 33.0354 0.134674)"/>
</clipPath>
</defs>
</svg>
