<?xml version="1.0" ?><svg data-name="Capa 1" id="Capa_1" viewBox="0 0 20 19.84" xmlns="http://www.w3.org/2000/svg"><path d="M16.78,12.65a.6.6,0,0,0,.6-.6V10.2A1.19,1.19,0,0,0,16.2,9h-.07l.3-.3a1.2,1.2,0,0,0,0-1.68L15.12,5.72a.61.61,0,0,0-.85,0,.57.57,0,0,1-.81-.81.61.61,0,0,0,0-.85L12.15,2.75a1.2,1.2,0,0,0-1.68,0L4.21,9H3.8A1.19,1.19,0,0,0,2.62,10.2v1.85a.59.59,0,0,0,.59.6.58.58,0,1,1,0,1.15.59.59,0,0,0-.59.6v1.85A1.19,1.19,0,0,0,3.8,17.44H16.2a1.19,1.19,0,0,0,1.18-1.19V14.4a.6.6,0,0,0-.6-.6.58.58,0,0,1,0-1.15ZM10.9,3.19a.57.57,0,0,1,.82,0L13,4.48a1.19,1.19,0,0,0,0,1.68,1.17,1.17,0,0,0,1.66,0L16,7.46a.59.59,0,0,1,0,.82L15.26,9H5.08ZM16.75,14.4h0v1.85a.57.57,0,0,1-.57.57H3.8a.57.57,0,0,1-.57-.57l0-1.84A1.18,1.18,0,0,0,4.4,13.23a1.17,1.17,0,0,0-1.15-1.18h0V10.2a.59.59,0,0,1,.57-.58H16.2a.57.57,0,0,1,.57.57V12a1.18,1.18,0,0,0-1.18,1.19A1.17,1.17,0,0,0,16.75,14.4Z"/><path d="M11.49,11.9a.3.3,0,0,0-.41,0l-1,1.05-1-1.05a.28.28,0,0,0-.4,0,.3.3,0,0,0,0,.41l1,1.07-1,1.08a.28.28,0,0,0,0,.4.32.32,0,0,0,.2.08.27.27,0,0,0,.2-.09l1-1,1,1a.3.3,0,0,0,.21.09.32.32,0,0,0,.2-.08.28.28,0,0,0,0-.4l-1-1.08,1-1.07A.3.3,0,0,0,11.49,11.9Z"/></svg>