<svg width="24" height="24" viewBox="0 0 24 24" fill="none" xmlns="http://www.w3.org/2000/svg">
<g id="fluent:call-24-filled">
<path id="Vector" d="M7.77194 2.439L8.84895 2.095C9.85695 1.773 10.9349 2.294 11.3669 3.312L12.2269 5.34C12.6019 6.223 12.3939 7.262 11.7129 7.908L9.81994 9.706C9.93694 10.782 10.2979 11.841 10.9039 12.883C11.4798 13.8912 12.252 14.7736 13.1749 15.478L15.4509 14.718C16.3129 14.431 17.2519 14.762 17.7809 15.539L19.0129 17.349C19.6289 18.253 19.5179 19.499 18.7549 20.265L17.9369 21.086C17.1229 21.903 15.9609 22.2 14.8849 21.864C12.3459 21.072 10.0119 18.721 7.88194 14.811C5.74894 10.895 4.99694 7.571 5.62394 4.843C5.88794 3.695 6.70595 2.78 7.77395 2.439H7.77194Z" fill="black"/>
</g>
</svg>
