<svg width="32" height="32" viewBox="0 0 32 32" fill="none" xmlns="http://www.w3.org/2000/svg">
<path d="M10.3624 3.252L11.7984 2.79334C13.1424 2.364 14.5798 3.05867 15.1558 4.416L16.3024 7.12C16.8024 8.29734 16.5251 9.68267 15.6171 10.544L13.0931 12.9413C13.2491 14.376 13.7304 15.788 14.5384 17.1773C15.3062 18.5216 16.3359 19.6981 17.5664 20.6373L20.6011 19.624C21.7504 19.2413 23.0024 19.6827 23.7078 20.7187L25.3504 23.132C26.1718 24.3373 26.0238 25.9987 25.0064 27.02L23.9158 28.1147C22.8304 29.204 21.2811 29.6 19.8464 29.152C16.4611 28.096 13.3491 24.9613 10.5091 19.748C7.6651 14.5267 6.66243 10.0947 7.49843 6.45734C7.85043 4.92667 8.9411 3.70667 10.3651 3.252H10.3624Z" fill="#365F50"/>
</svg>
