<?xml version="1.0" ?><!DOCTYPE svg  PUBLIC '-//W3C//DTD SVG 1.1//EN'  'http://www.w3.org/Graphics/SVG/1.1/DTD/svg11.dtd'><svg height="8.4666mm" style="shape-rendering:geometricPrecision; text-rendering:geometricPrecision; image-rendering:optimizeQuality; fill-rule:evenodd; clip-rule:evenodd" version="1.1" viewBox="0 0 846.66 846.66" width="8.4666mm" xml:space="preserve" xmlns="http://www.w3.org/2000/svg" xmlns:xlink="http://www.w3.org/1999/xlink"><defs><style type="text/css">
   <![CDATA[
    .fil0 {fill:black;fill-rule:nonzero}
   ]]>
  </style></defs><g id="Layer_x0020_1"><path class="fil0" d="M153.71 7.21l539.25 0c11.49,0 20.8,9.31 20.8,20.8l0 88.67 56.23 0c11.49,0 20.81,9.32 20.81,20.8l0 681.16c0,11.49 -9.32,20.81 -20.81,20.81 -231.1,0 -462.21,0 -693.32,0 -11.49,0 -20.81,-9.32 -20.81,-20.81l0 -681.16c0,-11.48 9.32,-20.8 20.81,-20.8l56.23 0 0 -88.67c0,-11.49 9.32,-20.8 20.81,-20.8zm110.48 159.18c-27.36,0 -27.36,-41.61 0,-41.61l318.28 0c27.37,0 27.37,41.61 0,41.61l-318.28 0zm0 249.35c-27.36,0 -27.36,-41.61 0,-41.61l318.28 0c27.37,0 27.37,41.61 0,41.61l-318.28 0zm0 -124.67c-27.36,0 -27.36,-41.61 0,-41.61l318.28 0c27.37,0 27.37,41.61 0,41.61l-318.28 0zm206.25 506.77l0 -165.17 -94.22 0 0 165.17 94.22 0zm-135.83 0l0 -185.98c0,-11.48 9.32,-20.8 20.81,-20.8l135.82 0c11.49,0 20.81,9.32 20.81,20.8l0 185.98 160.1 0 0 -749.02 -497.64 0 0 749.02 160.1 0zm379.15 -639.55l0 639.55 35.43 0 0 -639.55 -35.43 0zm-580.86 639.55l0 -639.55 -35.43 0 0 639.55 35.43 0z"/></g></svg>