<svg width="24" height="24" viewBox="0 0 24 24" fill="none" xmlns="http://www.w3.org/2000/svg">
<g clip-path="url(#clip0_51_1169)">
<path d="M15 3.00002C16.296 3.00002 17.496 3.41002 18.477 4.11002L9.343 13.243C9.24749 13.3353 9.17131 13.4456 9.1189 13.5676C9.06649 13.6896 9.0389 13.8208 9.03775 13.9536C9.0366 14.0864 9.0619 14.2181 9.11218 14.341C9.16246 14.4639 9.23671 14.5755 9.33061 14.6694C9.4245 14.7633 9.53615 14.8376 9.65905 14.8878C9.78194 14.9381 9.91362 14.9634 10.0464 14.9623C10.1792 14.9611 10.3104 14.9335 10.4324 14.8811C10.5544 14.8287 10.6648 14.7525 10.757 14.657L19.891 5.52302C20.6141 6.53805 21.0019 7.75374 21 9.00002V19C21 19.5305 20.7893 20.0392 20.4142 20.4142C20.0391 20.7893 19.5304 21 19 21H5C4.46957 21 3.96086 20.7893 3.58579 20.4142C3.21071 20.0392 3 19.5305 3 19V5.00002C3 4.46959 3.21071 3.96088 3.58579 3.5858C3.96086 3.21073 4.46957 3.00002 5 3.00002H15ZM21.657 2.34302C21.8445 2.53055 21.9498 2.78485 21.9498 3.05002C21.9498 3.31518 21.8445 3.56949 21.657 3.75702L19.89 5.52302C19.5006 4.97633 19.0227 4.49844 18.476 4.10902L20.242 2.34302C20.4295 2.15555 20.6838 2.05023 20.949 2.05023C21.2142 2.05023 21.4695 2.15555 21.657 2.34302Z" fill="black"/>
</g>
<defs>
<clipPath id="clip0_51_1169">
<rect width="24" height="24" fill="white"/>
</clipPath>
</defs>
</svg>
