<svg width="24" height="24" viewBox="0 0 24 24" fill="none" xmlns="http://www.w3.org/2000/svg">
<path d="M23.5309 11.5434C23.4962 11.4675 22.6749 9.64406 20.8609 7.83C18.4337 5.40656 15.3746 4.125 11.9996 4.125C8.62464 4.125 5.56557 5.40656 3.1412 7.83C1.32714 9.64406 0.505886 11.4675 0.468386 11.5434C0.404873 11.6874 0.37207 11.8431 0.37207 12.0005C0.37207 12.1579 0.404873 12.3135 0.468386 12.4575C0.503073 12.5344 1.32432 14.3569 3.13932 16.1709C5.56557 18.5944 8.62464 19.875 11.9996 19.875C15.3746 19.875 18.4337 18.5944 20.8571 16.1709C22.6721 14.3569 23.4934 12.5344 23.5281 12.4575C23.592 12.3137 23.6253 12.1581 23.6258 12.0008C23.6263 11.8434 23.594 11.6876 23.5309 11.5434ZM19.2128 14.6372C17.1999 16.6191 14.7737 17.625 11.9996 17.625C9.22557 17.625 6.79932 16.6191 4.78932 14.6362C3.9984 13.8537 3.31805 12.9667 2.76714 12C3.31821 11.0337 3.99854 10.1471 4.78932 9.36469C6.80026 7.38094 9.22557 6.375 11.9996 6.375C14.7737 6.375 17.199 7.38094 19.2099 9.36469C20.0008 10.147 20.6812 11.0336 21.2321 12C20.6811 12.9666 20.0008 13.8536 19.2099 14.6362L19.2128 14.6372ZM11.9996 7.875C11.1838 7.875 10.3863 8.11693 9.70791 8.57019C9.02956 9.02345 8.50084 9.66769 8.18863 10.4214C7.87642 11.1752 7.79473 12.0046 7.9539 12.8047C8.11306 13.6049 8.50593 14.3399 9.08282 14.9168C9.65971 15.4937 10.3947 15.8866 11.1949 16.0457C11.9951 16.2049 12.8245 16.1232 13.5782 15.811C14.332 15.4988 14.9762 14.9701 15.4294 14.2917C15.8827 13.6134 16.1246 12.8158 16.1246 12C16.1234 10.9064 15.6884 9.85787 14.9151 9.08455C14.1418 8.31124 13.0933 7.87624 11.9996 7.875ZM11.9996 13.875C11.6288 13.875 11.2663 13.765 10.9579 13.559C10.6496 13.353 10.4093 13.0601 10.2674 12.7175C10.1254 12.3749 10.0883 11.9979 10.1607 11.6342C10.233 11.2705 10.4116 10.9364 10.6738 10.6742C10.936 10.412 11.2701 10.2334 11.6338 10.161C11.9976 10.0887 12.3746 10.1258 12.7172 10.2677C13.0598 10.4096 13.3526 10.65 13.5586 10.9583C13.7647 11.2666 13.8746 11.6292 13.8746 12C13.8746 12.4973 13.6771 12.9742 13.3255 13.3258C12.9738 13.6775 12.4969 13.875 11.9996 13.875Z" fill="black"/>
</svg>
