<svg width="19" height="19" viewBox="0 0 19 19" fill="none" xmlns="http://www.w3.org/2000/svg">
<path d="M9.50065 6.92712C8.81827 6.92712 8.16384 7.1982 7.68132 7.68071C7.19881 8.16323 6.92773 8.81766 6.92773 9.50004C6.92773 10.1824 7.19881 10.8369 7.68132 11.3194C8.16384 11.8019 8.81827 12.073 9.50065 12.073C10.183 12.073 10.8375 11.8019 11.32 11.3194C11.8025 10.8369 12.0736 10.1824 12.0736 9.50004C12.0736 8.81766 11.8025 8.16323 11.32 7.68071C10.8375 7.1982 10.183 6.92712 9.50065 6.92712Z" fill="black"/>
<path fill-rule="evenodd" clip-rule="evenodd" d="M5.3594 2.43995C8.11125 2.13492 10.8884 2.13492 13.6402 2.43995C15.1436 2.60779 16.3557 3.79133 16.5322 5.30024C16.8585 8.0906 16.8585 10.9095 16.5322 13.6998C16.3557 15.2087 15.1436 16.3923 13.641 16.5609C10.8889 16.866 8.11151 16.866 5.3594 16.5609C3.85603 16.3923 2.64398 15.2087 2.46744 13.7006C2.14106 10.91 2.14106 8.09086 2.46744 5.30024C2.64398 3.79133 3.85603 2.60779 5.3594 2.43995ZM13.4582 4.75004C13.2482 4.75004 13.0468 4.83344 12.8984 4.98191C12.7499 5.13038 12.6665 5.33174 12.6665 5.5417C12.6665 5.75167 12.7499 5.95303 12.8984 6.1015C13.0468 6.24996 13.2482 6.33337 13.4582 6.33337C13.6681 6.33337 13.8695 6.24996 14.0179 6.1015C14.1664 5.95303 14.2498 5.75167 14.2498 5.5417C14.2498 5.33174 14.1664 5.13038 14.0179 4.98191C13.8695 4.83344 13.6681 4.75004 13.4582 4.75004ZM5.7394 9.50004C5.7394 8.50271 6.13559 7.54624 6.8408 6.84102C7.54602 6.13581 8.50249 5.73962 9.49982 5.73962C10.4971 5.73962 11.4536 6.13581 12.1588 6.84102C12.864 7.54624 13.2602 8.50271 13.2602 9.50004C13.2602 10.4974 12.864 11.4538 12.1588 12.1591C11.4536 12.8643 10.4971 13.2605 9.49982 13.2605C8.50249 13.2605 7.54602 12.8643 6.8408 12.1591C6.13559 11.4538 5.7394 10.4974 5.7394 9.50004Z" fill="black"/>
</svg>
