<svg width="24" height="24" viewBox="0 0 24 24" fill="none" xmlns="http://www.w3.org/2000/svg">
<path d="M12 8.75C11.138 8.75 10.3114 9.09241 9.7019 9.7019C9.09241 10.3114 8.75 11.138 8.75 12C8.75 12.862 9.09241 13.6886 9.7019 14.2981C10.3114 14.9076 11.138 15.25 12 15.25C12.862 15.25 13.6886 14.9076 14.2981 14.2981C14.9076 13.6886 15.25 12.862 15.25 12C15.25 11.138 14.9076 10.3114 14.2981 9.7019C13.6886 9.09241 12.862 8.75 12 8.75Z" fill="#365F50"/>
<path fill-rule="evenodd" clip-rule="evenodd" d="M6.7708 3.082C10.2468 2.6967 13.7548 2.6967 17.2308 3.082C19.1298 3.294 20.6608 4.789 20.8838 6.695C21.296 10.2197 21.296 13.7803 20.8838 17.305C20.6608 19.211 19.1298 20.706 17.2318 20.919C13.7554 21.3044 10.2471 21.3044 6.7708 20.919C4.8718 20.706 3.3408 19.211 3.1178 17.306C2.70553 13.781 2.70553 10.22 3.1178 6.695C3.3408 4.789 4.8718 3.294 6.7708 3.082ZM17.0008 6C16.7356 6 16.4812 6.10535 16.2937 6.29289C16.1062 6.48043 16.0008 6.73478 16.0008 7C16.0008 7.26521 16.1062 7.51957 16.2937 7.7071C16.4812 7.89464 16.7356 8 17.0008 8C17.266 8 17.5204 7.89464 17.7079 7.7071C17.8954 7.51957 18.0008 7.26521 18.0008 7C18.0008 6.73478 17.8954 6.48043 17.7079 6.29289C17.5204 6.10535 17.266 6 17.0008 6ZM7.2508 12C7.2508 10.7402 7.75124 9.53204 8.64204 8.64124C9.53284 7.75044 10.741 7.25 12.0008 7.25C13.2606 7.25 14.4688 7.75044 15.3596 8.64124C16.2504 9.53204 16.7508 10.7402 16.7508 12C16.7508 13.2598 16.2504 14.468 15.3596 15.3588C14.4688 16.2496 13.2606 16.75 12.0008 16.75C10.741 16.75 9.53284 16.2496 8.64204 15.3588C7.75124 14.468 7.2508 13.2598 7.2508 12Z" fill="#365F50"/>
</svg>
