<svg width="24" height="24" viewBox="0 0 24 24" fill="none" xmlns="http://www.w3.org/2000/svg">
<path d="M6.93945 5C6.93919 5.53043 6.72822 6.03904 6.35296 6.41392C5.9777 6.78881 5.46889 6.99927 4.93845 6.999C4.40802 6.99874 3.89942 6.78777 3.52453 6.41251C3.14965 6.03725 2.93919 5.52843 2.93945 4.998C2.93972 4.46757 3.15069 3.95897 3.52595 3.58408C3.90121 3.20919 4.41002 2.99874 4.94045 2.999C5.47089 2.99927 5.97949 3.21023 6.35437 3.58549C6.72926 3.96075 6.93972 4.46957 6.93945 5ZM6.99945 8.48H2.99945V21H6.99945V8.48ZM13.3195 8.48H9.33945V21H13.2795V14.43C13.2795 10.77 18.0495 10.43 18.0495 14.43V21H21.9995V13.07C21.9995 6.9 14.9395 7.13 13.2795 10.16L13.3195 8.48Z" fill="#365F50"/>
</svg>
