<svg width="19" height="19" viewBox="0 0 19 19" fill="none" xmlns="http://www.w3.org/2000/svg">
<path d="M5.49479 3.95833C5.49458 4.37826 5.32757 4.7809 5.03048 5.07769C4.7334 5.37447 4.33059 5.54108 3.91067 5.54087C3.49074 5.54066 3.0881 5.37365 2.79131 5.07657C2.49453 4.77948 2.32792 4.37667 2.32813 3.95675C2.32834 3.53682 2.49535 3.13418 2.79243 2.83739C3.08951 2.54061 3.49232 2.374 3.91225 2.37421C4.33218 2.37442 4.73482 2.54143 5.0316 2.83851C5.32839 3.1356 5.495 3.53841 5.49479 3.95833ZM5.54229 6.71333H2.37563V16.625H5.54229V6.71333ZM10.5456 6.71333H7.39479V16.625H10.514V11.4237C10.514 8.52625 14.2902 8.25708 14.2902 11.4237V16.625H17.4173V10.3471C17.4173 5.4625 11.8281 5.64458 10.514 8.04333L10.5456 6.71333Z" fill="black"/>
</svg>
