<?xml version="1.0" ?><svg fill="none" height="24" viewBox="0 0 24 24" width="24" xmlns="http://www.w3.org/2000/svg"><path clip-rule="evenodd" d="M2 12.5H14V11.5H2V12.5Z" fill="black" fill-rule="evenodd"/><path clip-rule="evenodd" d="M5.14641 8.14645L1.64641 11.6465C1.45115 11.8417 1.45115 12.1583 1.64641 12.3536L5.14641 15.8536L5.85352 15.1465L2.70707 12L5.85352 8.85356L5.14641 8.14645Z" fill="black" fill-rule="evenodd"/><path clip-rule="evenodd" d="M14.5954 5C11.9176 5 9.59182 6.54597 8.44623 8.81305L7.55371 8.36204C8.86051 5.77594 11.521 4 14.5954 4C18.967 4 22.5 7.58778 22.5 12C22.5 16.4122 18.967 20 14.5954 20C11.521 20 8.86051 18.2241 7.55371 15.638L8.44623 15.187C9.59182 17.454 11.9176 19 14.5954 19C18.4027 19 21.5 15.8721 21.5 12C21.5 8.12795 18.4027 5 14.5954 5Z" fill="black" fill-rule="evenodd"/></svg>