<svg width="32" height="32" viewBox="0 0 32 32" fill="none" xmlns="http://www.w3.org/2000/svg">
<g id="ic:round-mail">
<path id="Vector" d="M26.6665 5.33334H5.33317C3.8665 5.33334 2.6665 6.53334 2.6665 8V24C2.6665 25.4667 3.8665 26.6667 5.33317 26.6667H26.6665C28.1332 26.6667 29.3332 25.4667 29.3332 24V8C29.3332 6.53334 28.1332 5.33334 26.6665 5.33334ZM26.1332 11L17.4132 16.4533C16.5465 17 15.4532 17 14.5865 16.4533L5.8665 11C5.73281 10.925 5.61573 10.8236 5.52236 10.7019C5.42898 10.5803 5.36125 10.441 5.32327 10.2925C5.28529 10.144 5.27784 9.98925 5.30138 9.83775C5.32492 9.68624 5.37895 9.54109 5.46021 9.41107C5.54147 9.28105 5.64827 9.16888 5.77414 9.08133C5.90001 8.99378 6.04233 8.93268 6.1925 8.90173C6.34266 8.87078 6.49755 8.87063 6.64778 8.90127C6.79801 8.93191 6.94045 8.99271 7.0665 9.08L15.9998 14.6667L24.9332 9.08C25.0592 8.99271 25.2017 8.93191 25.3519 8.90127C25.5021 8.87063 25.657 8.87078 25.8072 8.90173C25.9573 8.93268 26.0997 8.99378 26.2255 9.08133C26.3514 9.16888 26.4582 9.28105 26.5395 9.41107C26.6207 9.54109 26.6748 9.68624 26.6983 9.83775C26.7218 9.98925 26.7144 10.144 26.6764 10.2925C26.6384 10.441 26.5707 10.5803 26.4773 10.7019C26.3839 10.8236 26.2669 10.925 26.1332 11Z" fill="#365F50"/>
</g>
</svg>
