<?xml version="1.0" ?><svg data-name="Layer 1" id="Layer_1" viewBox="0 0 32 32" xmlns="http://www.w3.org/2000/svg"><title/><path d="M26.61,2H10.74a2.9,2.9,0,0,0-.6.07A7.14,7.14,0,0,0,9.21,2,6.62,6.62,0,0,0,7.94,15.12V27.2a2.81,2.81,0,0,0,2.8,2.8H26.61a2.8,2.8,0,0,0,2.8-2.8V4.8A2.8,2.8,0,0,0,26.61,2ZM4.46,8.62a4.76,4.76,0,1,1,4.75,4.76A4.75,4.75,0,0,1,4.46,8.62ZM27.54,27.2a.93.93,0,0,1-.93.93H10.74a.93.93,0,0,1-.93-.93v-12a6.61,6.61,0,0,0,4-11.34h12.8a.93.93,0,0,1,.93.93Z"/><path d="M10.14,8.62V5.07a.93.93,0,1,0-1.86,0V7.69H6.37a.94.94,0,1,0,0,1.87H9.21A.93.93,0,0,0,10.14,8.62Z"/></svg>