<svg width="19" height="19" viewBox="0 0 19 19" fill="none" xmlns="http://www.w3.org/2000/svg">
<path d="M17.4173 4.59171C16.8223 4.84987 16.1929 5.02053 15.549 5.09838C16.2284 4.69251 16.7375 4.054 16.9819 3.30129C16.3435 3.68134 15.6446 3.94911 14.9157 4.09296C14.4284 3.56458 13.7796 3.21286 13.0709 3.09297C12.3622 2.97307 11.6338 3.09179 10.9999 3.43049C10.366 3.76919 9.86239 4.30871 9.56813 4.96446C9.27388 5.6202 9.20559 6.35506 9.37398 7.05379C8.08311 6.9885 6.82042 6.65238 5.66792 6.06727C4.51542 5.48215 3.4989 4.66113 2.6844 3.65754C2.39872 4.15643 2.2486 4.7214 2.24898 5.29629C2.24797 5.83018 2.37899 6.35603 2.63037 6.82703C2.88176 7.29803 3.24571 7.69956 3.68982 7.99588C3.17363 7.98183 2.66848 7.84332 2.21732 7.59213V7.63171C2.22119 8.37975 2.48331 9.10349 2.95936 9.68052C3.4354 10.2575 4.09615 10.6524 4.82982 10.7984C4.54739 10.8843 4.25418 10.9296 3.95898 10.933C3.75465 10.9306 3.55082 10.912 3.3494 10.8775C3.55833 11.521 3.96264 12.0834 4.50609 12.4863C5.04953 12.8893 5.70507 13.1129 6.38148 13.1259C5.23927 14.0246 3.82906 14.5151 2.37565 14.5192C2.11102 14.5201 1.84661 14.5042 1.58398 14.4717C3.06791 15.4298 4.79721 15.9384 6.56357 15.9363C7.78249 15.949 8.99172 15.7186 10.1206 15.2587C11.2495 14.7988 12.2755 14.1185 13.1385 13.2577C14.0016 12.3968 14.6845 11.3726 15.1473 10.2449C15.6101 9.11721 15.8435 7.90858 15.834 6.68963V6.27004C16.4552 5.80677 16.991 5.23884 17.4173 4.59171Z" fill="black"/>
</svg>
