<svg width="24" height="24" viewBox="0 0 24 24" fill="none" xmlns="http://www.w3.org/2000/svg">
<path d="M6.96937 7.28061C6.89964 7.21095 6.84432 7.12823 6.80658 7.03719C6.76884 6.94614 6.74941 6.84854 6.74941 6.74998C6.74941 6.65142 6.76884 6.55382 6.80658 6.46277C6.84432 6.37173 6.89964 6.28901 6.96937 6.21935L11.4694 1.71935C11.539 1.64962 11.6217 1.5943 11.7128 1.55656C11.8038 1.51882 11.9014 1.49939 12 1.49939C12.0986 1.49939 12.1962 1.51882 12.2872 1.55656C12.3783 1.5943 12.461 1.64962 12.5306 1.71935L17.0306 6.21935C17.1714 6.36009 17.2504 6.55096 17.2504 6.74998C17.2504 6.949 17.1714 7.13987 17.0306 7.28061C16.8899 7.42134 16.699 7.5004 16.5 7.5004C16.301 7.5004 16.1101 7.42134 15.9694 7.28061L12.75 4.06029V12C12.75 12.1989 12.671 12.3897 12.5303 12.5303C12.3897 12.671 12.1989 12.75 12 12.75C11.8011 12.75 11.6103 12.671 11.4697 12.5303C11.329 12.3897 11.25 12.1989 11.25 12V4.06029L8.03063 7.28061C7.96097 7.35034 7.87825 7.40566 7.78721 7.4434C7.69616 7.48114 7.59856 7.50057 7.5 7.50057C7.40144 7.50057 7.30384 7.48114 7.21279 7.4434C7.12175 7.40566 7.03903 7.35034 6.96937 7.28061ZM22.5 12.75V18.75C22.5 19.1478 22.342 19.5293 22.0607 19.8106C21.7794 20.0919 21.3978 20.25 21 20.25H3C2.60218 20.25 2.22064 20.0919 1.93934 19.8106C1.65804 19.5293 1.5 19.1478 1.5 18.75V12.75C1.5 12.3522 1.65804 11.9706 1.93934 11.6893C2.22064 11.408 2.60218 11.25 3 11.25H9.375C9.47446 11.25 9.56984 11.2895 9.64017 11.3598C9.71049 11.4301 9.75 11.5255 9.75 11.625V11.9494C9.75 13.2103 10.7813 14.2734 12.0431 14.25C12.6324 14.2387 13.1936 13.9967 13.6063 13.5759C14.019 13.1552 14.2501 12.5893 14.25 12V11.625C14.25 11.5255 14.2895 11.4301 14.3598 11.3598C14.4302 11.2895 14.5255 11.25 14.625 11.25H21C21.3978 11.25 21.7794 11.408 22.0607 11.6893C22.342 11.9706 22.5 12.3522 22.5 12.75ZM18.75 15.75C18.75 15.5275 18.684 15.31 18.5604 15.125C18.4368 14.94 18.2611 14.7958 18.0555 14.7106C17.85 14.6255 17.6238 14.6032 17.4055 14.6466C17.1873 14.69 16.9868 14.7972 16.8295 14.9545C16.6722 15.1118 16.565 15.3123 16.5216 15.5305C16.4782 15.7487 16.5005 15.9749 16.5856 16.1805C16.6708 16.3861 16.815 16.5618 17 16.6854C17.185 16.809 17.4025 16.875 17.625 16.875C17.9234 16.875 18.2095 16.7565 18.4205 16.5455C18.6315 16.3345 18.75 16.0483 18.75 15.75Z" fill="black"/>
</svg>
