<svg width="24" height="24" viewBox="0 0 24 24" fill="none" xmlns="http://www.w3.org/2000/svg">
<path d="M2.04983 13H7.52683C7.69777 16.1672 8.70721 19.2321 10.4518 21.881C8.26658 21.538 6.25661 20.4804 4.73624 18.8738C3.21586 17.2671 2.2708 15.2018 2.04883 13.001L2.04983 13ZM2.04983 11C2.27175 8.79931 3.21667 6.73418 4.73684 5.12752C6.25702 3.52085 8.26676 2.46323 10.4518 2.12C8.70738 4.76861 7.69794 7.83315 7.52683 11H2.04983ZM21.9498 11H16.4728C16.3017 7.83315 15.2923 4.76861 13.5478 2.12C15.7329 2.46323 17.7426 3.52085 19.2628 5.12752C20.783 6.73418 21.7279 8.79931 21.9498 11ZM21.9498 13C21.7281 15.2009 20.7833 17.2662 19.2631 18.8731C17.7429 20.48 15.733 21.5377 13.5478 21.881C15.2923 19.2324 16.3017 16.1679 16.4728 13.001H21.9508L21.9498 13ZM9.52983 13H14.4698C14.3052 15.6995 13.4551 18.3124 11.9998 20.592C10.5445 18.3124 9.69442 15.6995 9.52983 13ZM9.52983 11C9.69476 8.30121 10.5449 5.68898 11.9998 3.41C13.4548 5.68898 14.3049 8.30121 14.4698 11H9.52983Z" fill="black"/>
</svg>
